<?xml version="1.0" encoding="utf-8"?>
<!-- Generator: Adobe Illustrator 16.0.0, SVG Export Plug-In . SVG Version: 6.00 Build 0)  -->
<!DOCTYPE svg PUBLIC "-//W3C//DTD SVG 1.1//EN" "http://www.w3.org/Graphics/SVG/1.1/DTD/svg11.dtd">
<svg version="1.1" id="Layer_1" xmlns="http://www.w3.org/2000/svg" xmlns:xlink="http://www.w3.org/1999/xlink" x="0px" y="0px"
	 width="155.003px" height="42.52px" viewBox="0 0 155.003 42.52" enable-background="new 0 0 155.003 42.52" xml:space="preserve">
<g>
	<defs>
		<rect id="SVGID_1_" y="0" width="155.003" height="42.52"/>
	</defs>
	<clipPath id="SVGID_2_">
		<use xlink:href="#SVGID_1_"  overflow="visible"/>
	</clipPath>
	<path clip-path="url(#SVGID_2_)" fill="#008CCF" d="M42.491,20.462h-3.877c-2.214,0.033-3.091,1.348-3.418,2.338
		c-0.244,0.738-0.42,1.327-0.441,1.396l-5.447,18.013h4.777l1.396-4.995h7.291l1.365,4.995h4.964L42.491,20.462z M36.567,33.306
		l0.899-3.164c0.776-2.761,1.242-4.53,1.615-6.392h0.123c0.373,1.925,0.806,3.506,1.644,6.517l0.837,3.039H36.567z"/>
	<path clip-path="url(#SVGID_2_)" fill="#008CCF" d="M5.863,9.645c0,1.851,1.5,3.35,3.35,3.35v2.513
		c-3.238,0-5.863-2.624-5.863-5.863H5.863z"/>
	<path clip-path="url(#SVGID_2_)" fill="#008CCF" d="M21.777,9.645c0,1.851,1.5,3.35,3.351,3.35v2.513
		c-3.239,0-5.864-2.624-5.864-5.863H21.777z"/>
	<path clip-path="url(#SVGID_2_)" fill="#265C99" d="M12.564,6.294h-2.513v2.513h1.257v7.12h2.513V7.552
		C13.821,6.857,13.258,6.294,12.564,6.294"/>
	<path clip-path="url(#SVGID_2_)" fill="#265C99" d="M25.965,15.508h2.513V8.808h1.675v6.701h2.513V7.55
		c0-0.692-0.562-1.256-1.257-1.256h-5.444V15.508z"/>
	<path clip-path="url(#SVGID_2_)" fill="#265C99" d="M15.915,20.534c-1.157,0-2.094-0.938-2.094-2.094v-1.675h-2.513v1.675
		c0,2.544,2.063,4.605,4.607,4.605h1.675v-2.512H15.915z"/>
	<polyline clip-path="url(#SVGID_2_)" fill="#265C99" points="17.38,23.047 19.055,23.047 19.055,20.535 17.38,20.535 	"/>
	<path clip-path="url(#SVGID_2_)" fill="#265C99" d="M24.709,8.808V6.295h-8.375v2.513h2.931v0.837c0,1.851-1.5,3.35-3.351,3.35
		v2.514c3.238,0,5.863-2.625,5.863-5.864V8.808H24.709z"/>
	<path clip-path="url(#SVGID_2_)" fill="#265C99" d="M8.794,6.294H5.863V4.202H3.35v2.093H0.419v2.513H3.35v0.838
		c0,1.85-1.5,3.35-3.35,3.35v2.513c3.238,0,5.863-2.626,5.863-5.863V8.808h2.931V6.294z"/>
	<path clip-path="url(#SVGID_2_)" fill="#008CCF" d="M23.534,20.462h-4.288c-2.749,0.002-3.116,1.977-3.157,2.7v19.047h4.744v-7.725
		h1.801c6.359,0,8.5-3.506,8.5-7.569C31.134,22.107,27.937,20.462,23.534,20.462 M22.384,30.607h-1.551v-6.144h1.924
		c2.421,0,3.475,0.962,3.475,3.103C26.232,29.241,25.549,30.607,22.384,30.607"/>
	<path clip-path="url(#SVGID_2_)" fill="#008CCF" d="M63.841,36.222c-1.024-1.831-1.737-2.637-2.887-3.195v-0.124
		c2.546-0.496,4.592-2.265,4.592-6.049c0-4.561-2.729-6.391-7.538-6.391h-3.914c-2.752,0.001-3.118,1.979-3.158,2.701v19.045h4.683
		v-8.097h0.31c0.993,0,1.583,0.248,1.986,1.022l3.599,7.074h5.646L63.841,36.222z M57.418,30.359H55.62v-5.988h1.861
		c2.078,0,3.258,0.899,3.258,2.884C60.738,29.273,59.933,30.359,57.418,30.359"/>
	<path clip-path="url(#SVGID_2_)" fill="#008CCF" d="M70.432,20.462c-2.824,0.002-3.134,2.081-3.161,2.752v1.156h5.399V42.21h4.745
		V24.371h5.398v-3.909H70.432z"/>
	<path clip-path="url(#SVGID_2_)" fill="#008CCF" d="M97.826,20.462v6.887c0,2.296,0,5.304,0.249,8.344h-0.126
		c-0.806-2.171-1.984-4.589-3.068-6.668l-4.438-8.563H87.92c-2.677,0.001-3.095,1.87-3.153,2.637v19.11h4.529v-8.222
		c0-3.755-0.095-5.43-0.311-7.6h0.123c0.899,2.388,1.801,4.529,2.885,6.637l4.779,9.185h5.554V20.462H97.826z"/>
	<path clip-path="url(#SVGID_2_)" fill="#008CCF" d="M110.588,38.301v-5.182h7.436V29.21h-7.436v-4.839h8.583v-3.909H109.03
		c-2.721,0.002-3.109,1.934-3.157,2.676v19.07h13.67v-3.908H110.588z"/>
	<path clip-path="url(#SVGID_2_)" fill="#008CCF" d="M135.127,36.222c-1.025-1.831-1.737-2.637-2.887-3.195v-0.124
		c2.546-0.496,4.592-2.265,4.592-6.049c0-4.561-2.73-6.391-7.538-6.391h-3.923c-2.619,0.001-3.076,1.788-3.149,2.584v19.162h4.684
		v-8.097h0.31c0.992,0,1.582,0.248,1.985,1.022l3.6,7.074h5.647L135.127,36.222z M128.704,30.359h-1.799v-5.988h1.86
		c2.078,0,3.259,0.899,3.259,2.884C132.024,29.273,131.218,30.359,128.704,30.359"/>
	<path clip-path="url(#SVGID_2_)" fill="#008CCF" d="M145.012,26.201c0-1.086,0.87-1.955,2.421-1.955
		c2.298,0,3.536,1.365,4.064,2.018l1.771-2.107c0.976-1.16,0.782-1.75-0.101-2.437c-0.136-0.101-0.271-0.2-0.43-0.299
		c-0.018-0.01-0.035-0.021-0.051-0.031c-1.157-0.712-2.6-1.237-4.851-1.237c-4.497,0-7.662,2.823-7.662,6.422
		c0,6.855,10.021,6.389,10.021,9.833c0,1.149-0.9,2.11-2.792,2.11c-2.638,0-4.531-1.675-5.46-2.606l-2.7,3.909
		c0.744,0.837,3.351,2.699,7.539,2.699c5.521,0,8.221-3.165,8.221-6.422C155.003,29.181,145.012,29.706,145.012,26.201"/>
	<path clip-path="url(#SVGID_2_)" fill="#265C99" d="M38.231,6.288c-2.219,2.219-2.219,5.817,0,8.037
		c2.219,2.219,5.817,2.219,8.037,0l4.018-4.018l-4.018-4.019C44.048,4.069,40.45,4.069,38.231,6.288"/>
	<path clip-path="url(#SVGID_2_)" fill="#008CCF" d="M54.305,6.288c-2.219-2.219-5.817-2.219-8.037,0l-2.01,2.011
		C44,8.039,43.644,7.878,43.25,7.878c-0.783,0-1.419,0.635-1.419,1.419c0,0.393,0.161,0.75,0.421,1.007l-0.002,0.003l4.018,4.018
		c2.22,2.219,5.818,2.219,8.037,0C56.523,12.104,56.523,8.508,54.305,6.288"/>
	<path clip-path="url(#SVGID_2_)" fill="#008CCF" d="M50.218,3.28c0.906,0,1.64-0.734,1.64-1.641c0-0.905-0.734-1.64-1.64-1.64
		c-0.906,0-1.641,0.735-1.641,1.64C48.577,2.546,49.312,3.28,50.218,3.28"/>
	<path clip-path="url(#SVGID_2_)" fill="#265C99" d="M50.228,10.248l-3.96-3.96l-2.317,1.701l4.326,4.326l0.009-0.007
		c0.254,0.242,0.596,0.393,0.976,0.393c0.783,0,1.419-0.636,1.419-1.419C50.681,10.873,50.505,10.507,50.228,10.248"/>
	<path clip-path="url(#SVGID_2_)" fill="#265C99" d="M43.89,1.64c0,0.905-0.734,1.64-1.641,1.64c-0.905,0-1.64-0.735-1.64-1.64
		c0-0.906,0.735-1.641,1.64-1.641C43.156,0,43.89,0.734,43.89,1.64"/>
</g>
</svg>
