<svg version="1.1" id="Layer_1" xmlns="http://www.w3.org/2000/svg" xmlns:xlink="http://www.w3.org/1999/xlink" x="0" y="0" width="155.003" height="42.52" xml:space="preserve"><defs><path id="SVGID_1_" d="M0 0h155.003v42.52H0z"/></defs><clipPath id="SVGID_2_"><use xlink:href="#SVGID_1_" overflow="visible"/></clipPath><path clip-path="url(#SVGID_2_)" fill="#008CCF" d="M42.491 20.462h-3.877c-2.214.033-3.091 1.348-3.418 2.338-.244.738-.42 1.327-.441 1.396l-5.447 18.013h4.777l1.396-4.995h7.291l1.365 4.995h4.964l-6.61-21.747zm-5.924 12.844l.899-3.164c.776-2.761 1.242-4.53 1.615-6.392h.123c.373 1.925.806 3.506 1.644 6.517l.837 3.039h-5.118zM5.863 9.645a3.35 3.35 0 003.35 3.35v2.513A5.862 5.862 0 013.35 9.645h2.513zm15.914 0a3.35 3.35 0 003.351 3.35v2.513a5.863 5.863 0 01-5.864-5.863h2.513z"/><path clip-path="url(#SVGID_2_)" fill="#265C99" d="M12.564 6.294h-2.513v2.513h1.257v7.12h2.513V7.552c0-.695-.563-1.258-1.257-1.258m13.401 9.214h2.513v-6.7h1.675v6.701h2.513V7.55c0-.692-.562-1.256-1.257-1.256h-5.444v9.214zm-10.05 5.026a2.094 2.094 0 01-2.094-2.094v-1.675h-2.513v1.675a4.606 4.606 0 004.607 4.605h1.675v-2.512h-1.675z"/><path clip-path="url(#SVGID_2_)" fill="#265C99" d="M17.38 23.047h1.675v-2.512H17.38m7.329-11.727V6.295h-8.375v2.513h2.931v.837a3.35 3.35 0 01-3.351 3.35v2.514a5.863 5.863 0 005.863-5.864v-.837h2.932zM8.794 6.294H5.863V4.202H3.35v2.093H.419v2.513H3.35v.838c0 1.85-1.5 3.35-3.35 3.35v2.513a5.864 5.864 0 005.863-5.863v-.838h2.931V6.294z"/><path clip-path="url(#SVGID_2_)" fill="#008CCF" d="M23.534 20.462h-4.288c-2.749.002-3.116 1.977-3.157 2.7v19.047h4.744v-7.725h1.801c6.359 0 8.5-3.506 8.5-7.569 0-4.808-3.197-6.453-7.6-6.453m-1.15 10.145h-1.551v-6.144h1.924c2.421 0 3.475.962 3.475 3.103 0 1.675-.683 3.041-3.848 3.041m41.457 5.615c-1.024-1.831-1.737-2.637-2.887-3.195v-.124c2.546-.496 4.592-2.265 4.592-6.049 0-4.561-2.729-6.391-7.538-6.391h-3.914c-2.752.001-3.118 1.979-3.158 2.701v19.045h4.683v-8.097h.31c.993 0 1.583.248 1.986 1.022l3.599 7.074h5.646l-3.319-5.986zm-6.423-5.863H55.62v-5.988h1.861c2.078 0 3.258.899 3.258 2.884-.001 2.018-.806 3.104-3.321 3.104m13.014-9.897c-2.824.002-3.134 2.081-3.161 2.752v1.156h5.399v17.84h4.745V24.371h5.398v-3.909H70.432zm27.394 0v6.887c0 2.296 0 5.304.249 8.344h-.126c-.806-2.171-1.984-4.589-3.068-6.668l-4.438-8.563H87.92c-2.677.001-3.095 1.87-3.153 2.637v19.11h4.529v-8.222c0-3.755-.095-5.43-.311-7.6h.123c.899 2.388 1.801 4.529 2.885 6.637l4.779 9.185h5.554V20.462h-4.5zm12.762 17.839v-5.182h7.436V29.21h-7.436v-4.839h8.583v-3.909H109.03c-2.721.002-3.109 1.934-3.157 2.676v19.07h13.67V38.3h-8.955zm24.539-2.079c-1.025-1.831-1.737-2.637-2.887-3.195v-.124c2.546-.496 4.592-2.265 4.592-6.049 0-4.561-2.73-6.391-7.538-6.391h-3.923c-2.619.001-3.076 1.788-3.149 2.584v19.162h4.684v-8.097h.31c.992 0 1.582.248 1.985 1.022l3.6 7.074h5.647l-3.321-5.986zm-6.423-5.863h-1.799v-5.988h1.86c2.078 0 3.259.899 3.259 2.884 0 2.018-.806 3.104-3.32 3.104m16.308-4.158c0-1.086.87-1.955 2.421-1.955 2.298 0 3.536 1.365 4.064 2.018l1.771-2.107c.976-1.16.782-1.75-.101-2.437a6.188 6.188 0 00-.43-.299l-.051-.031c-1.157-.712-2.6-1.237-4.851-1.237-4.497 0-7.662 2.823-7.662 6.422 0 6.855 10.021 6.389 10.021 9.833 0 1.149-.9 2.11-2.792 2.11-2.638 0-4.531-1.675-5.46-2.606l-2.7 3.909c.744.837 3.351 2.699 7.539 2.699 5.521 0 8.221-3.165 8.221-6.422.001-6.917-9.99-6.392-9.99-9.897"/><path clip-path="url(#SVGID_2_)" fill="#265C99" d="M38.231 6.288a5.684 5.684 0 008.037 8.037l4.018-4.018-4.018-4.019a5.684 5.684 0 00-8.037 0"/><path clip-path="url(#SVGID_2_)" fill="#008CCF" d="M54.305 6.288a5.684 5.684 0 00-8.037 0l-2.01 2.011a1.42 1.42 0 10-2.006 2.005l-.002.003 4.018 4.018a5.684 5.684 0 008.037-8.037M50.218 3.28a1.64 1.64 0 100-3.28 1.64 1.64 0 000 3.28"/><path clip-path="url(#SVGID_2_)" fill="#265C99" d="M50.228 10.248l-3.96-3.96-2.317 1.701 4.326 4.326.009-.007c.254.242.596.393.976.393a1.42 1.42 0 001.419-1.419c0-.409-.176-.775-.453-1.034M43.89 1.64a1.64 1.64 0 11-3.281-.001 1.64 1.64 0 013.281.001"/></svg>